# xmcd CD database file
#
# Track frame offsets:
#	150
#	16154
#	37062
#	59287
#	73200
#	84294
#	103305
#	123890
#	146827
#	161757
#	175858
#	188090
#	199781
#	210716
#	222701
#	236919
#	254849
#	269918
#	286647
#	303906
#	315082
#
# Disc length: 4389 seconds
#
# Revision: 0
# Processed by: cddbd v1.5.1PL0 Copyright (c) Steve Scherf et al.
# Submitted via: CDex 1.51
#
DISCID=45112315
DTITLE=Amalia Rodrigues - Amalia Rodrigues
DYEAR=1900
DGENRE=Jazz
TTITLE0=Nem As Paredes Confesso
TTITLE1=Maldicao
TTITLE2=Fado Portugues
TTITLE3=Ai Mouraria
TTITLE4=Vou Dar de Beber A Dor
TTITLE5=Barco Negro
TTITLE6=Gaivota
TTITLE7=Povo Que Lavas No Rio
TTITLE8=Estranha Forma de Vida
TTITLE9=Ha Festa Na Mouraria
TTITLE10=Uma Casa Portuguesa
TTITLE11=Lisboa Antiga
TTITLE12=Coimbra
TTITLE13=Maria Lisboa
TTITLE14=Havemos de Ir A Viana
TTITLE15=Primavera
TTITLE16=Com Que Voz
TTITLE17=Foi Deus
TTITLE18=19
TTITLE19=20
TTITLE20=21
EXTD=
EXTT0=
EXTT1=
EXTT2=
EXTT3=
EXTT4=
EXTT5=
EXTT6=
EXTT7=
EXTT8=
EXTT9=
EXTT10=
EXTT11=
EXTT12=
EXTT13=
EXTT14=
EXTT15=
EXTT16=
EXTT17=
EXTT18=
EXTT19=
EXTT20=
PLAYORDER=
